<svg width="28" height="28" viewBox="0 0 28 28" fill="none" xmlns="http://www.w3.org/2000/svg">
<path d="M14 0C6.26625 0 0 6.26625 0 14C0 21.7337 6.26625 28 14 28C21.7337 28 28 21.7337 28 14C28 6.26625 21.7337 0 14 0ZM8.6875 20.1181C8.60159 20.2647 8.47861 20.386 8.33094 20.4699C8.18327 20.5538 8.0161 20.5974 7.84625 20.5963C7.67314 20.5978 7.50303 20.551 7.355 20.4613C7.24478 20.3974 7.14826 20.3124 7.07098 20.2111C6.9937 20.1098 6.93718 19.9943 6.90466 19.8711C6.87214 19.748 6.86426 19.6196 6.88148 19.4934C6.8987 19.3672 6.94068 19.2456 7.005 19.1356L7.96062 17.5469C8.00892 17.4649 8.07782 17.3969 8.16048 17.3498C8.24315 17.3026 8.33671 17.2779 8.43188 17.2781H8.57312C9.26625 17.2781 9.75125 17.695 9.8925 18.0987L8.6875 20.1181ZM16.7781 16.9931L10.52 17H6.36063C6.22976 17.0006 6.10015 16.9745 5.97965 16.9235C5.85915 16.8724 5.75027 16.7974 5.65963 16.7031C5.56898 16.6087 5.49845 16.4968 5.45232 16.3744C5.40618 16.2519 5.38541 16.1214 5.39125 15.9906C5.41125 15.4656 5.86937 15.0681 6.39125 15.0681H9.40625L12.9806 8.98375L11.8231 7.01188C11.5625 6.5625 11.6781 5.97 12.125 5.6875C12.2352 5.61625 12.3586 5.56801 12.4879 5.54569C12.6172 5.52337 12.7497 5.52742 12.8773 5.5576C13.005 5.58779 13.1253 5.64348 13.2309 5.72133C13.3365 5.79918 13.4253 5.89759 13.4919 6.01062L14.1106 7.0675H14.1175L14.7369 6.01062C14.8036 5.89817 14.8922 5.8003 14.9975 5.72284C15.1028 5.64538 15.2227 5.58991 15.3499 5.55976C15.4771 5.52961 15.609 5.52538 15.7379 5.54732C15.8668 5.56927 15.9899 5.61694 16.1 5.6875C16.5444 5.97 16.6588 6.5625 16.3962 7.01375L15.2388 8.98563L14.1138 10.9038L11.6706 15.07V15.0769H15.2712C15.7225 15.0769 16.2881 15.3194 16.5169 15.7094L16.5369 15.75C16.7388 16.0931 16.8531 16.3288 16.8531 16.6719C16.8498 16.7833 16.825 16.893 16.78 16.995L16.7781 16.9931ZM21.6375 17H19.9431V17.0069L21.1819 19.1138C21.3151 19.3356 21.3559 19.601 21.2955 19.8526C21.235 20.1043 21.0782 20.3222 20.8587 20.4594C20.7066 20.5521 20.5319 20.6012 20.3538 20.6012C20.1844 20.6012 20.0179 20.5573 19.8705 20.4738C19.723 20.3904 19.5997 20.2702 19.5125 20.125L17.6819 17.0088L16.5444 15.0713L15.0769 12.5625C14.8643 12.2043 14.7488 11.7969 14.7417 11.3804C14.7345 10.9639 14.8361 10.5528 15.0362 10.1875C15.3262 9.67562 15.5481 9.54125 15.5481 9.54125L18.8125 15.0625H21.6194C22.1444 15.0625 22.595 15.4663 22.6194 15.9844C22.6244 16.1161 22.6028 16.2475 22.5558 16.3707C22.5088 16.4938 22.4374 16.6062 22.3458 16.7011C22.2543 16.7959 22.1445 16.8713 22.0231 16.9227C21.9017 16.974 21.7712 17.0003 21.6394 17H21.6375Z" fill="white"/>
</svg>
