<svg width="12" height="12" viewBox="0 0 12 12" fill="none" xmlns="http://www.w3.org/2000/svg">
<path d="M8.33334 3.66675C9.26159 3.66675 10.1518 4.0355 10.8082 4.69187C11.4646 5.34825 11.8333 6.23849 11.8333 7.16675V11.2501H9.5V7.16675C9.5 6.85733 9.37709 6.56058 9.15829 6.34179C8.9395 6.123 8.64276 6.00008 8.33334 6.00008C8.02392 6.00008 7.72717 6.123 7.50838 6.34179C7.28959 6.56058 7.16667 6.85733 7.16667 7.16675V11.2501H4.83334V7.16675C4.83334 6.23849 5.20208 5.34825 5.85846 4.69187C6.51484 4.0355 7.40508 3.66675 8.33334 3.66675Z" fill="#101010"/>
<path d="M0.166668 4.25H2.5V11.25H0.166668V4.25Z" fill="#101010"/>
<path d="M1.33333 2.50008C1.97767 2.50008 2.5 1.97775 2.5 1.33341C2.5 0.689083 1.97767 0.166748 1.33333 0.166748C0.689002 0.166748 0.166668 0.689083 0.166668 1.33341C0.166668 1.97775 0.689002 2.50008 1.33333 2.50008Z" fill="#101010"/>
</svg>
